# xmcd
#
# Track frame offsets:
#	150
#	9375
#	20112
#	31455
#	41900
#	52875
#	62750
#	74300
#	88750
#	102650
#	114850
#	128800
#	140825
#	150800
#	163225
#	173750
#	184047
#	194125
#
# Disc length: 2718 seconds
#
# Revision: 1
# Processed by: cddbd v1.4PL0 Copyright (c) Steve Scherf et al.
# Submitted via: audiograbber 1.80
#
DISCID=fd0a9c12
DTITLE=Various Artist - Legends In Their Own Time
DYEAR=1900
DGENRE=
TTITLE0=Charlie Pride - Kiss An Angel Good Mornin'
TTITLE1=Ronnie Milsap - Day Dreams About Night Things
TTITLE2=Hank Locklin - Send Me The Pillow You Dream On
TTITLE3=Connie Smith - Once A Day
TTITLE4=Charlie Rich - She Called Me Baby
TTITLE5=Jim Reeves - Blue Boy
TTITLE6=Skeeter Davis - My Last Date (With You)
TTITLE7=Porter Wagoner - Cold Hard Facts Of Life
TTITLE8=Willie Nelson - If You Can Touch Her At All
TTITLE9=Dottie West - Would You Hold It Against Me
TTITLE10=Jim Ed Brown - Morning
TTITLE11=Dolly Parton - Jolene
TTITLE12=Gearge Hamiliton IV - Abilene
TTITLE13=Bobby Bare - Four Strong Winds
TTITLE14=Waylon Jennings - Walk On Out Of My Mind
TTITLE15=Connie Smith - Ain't No Lovin'
TTITLE16=Roger Miller - When Two Worlds Collide
TTITLE17=Eddy Arnold - What's He Doin' In My World
EXTD=
EXTT0=
EXTT1=
EXTT2=
EXTT3=
EXTT4=
EXTT5=
EXTT6=
EXTT7=
EXTT8=
EXTT9=
EXTT10=
EXTT11=
EXTT12=
EXTT13=
EXTT14=
EXTT15=
EXTT16=
EXTT17=
PLAYORDER=
